<svg width="24" height="21" viewBox="0 0 24 21" fill="none" xmlns="http://www.w3.org/2000/svg">
<path d="M19.5 10.313C19.5 14.7012 16.0701 18.126 12 18.126C7.92993 18.126 4.5 14.7012 4.5 10.313C4.5 5.92481 7.92993 2.5 12 2.5C16.0701 2.5 19.5 5.92481 19.5 10.313Z" stroke="#878A93" stroke-width="5" stroke-linecap="round" stroke-linejoin="round"/>
<path d="M15.4578 10.3128C15.4578 12.0216 13.9095 13.4067 11.9995 13.4067C10.0895 13.4067 8.54116 12.0216 8.54116 10.3128C8.54116 8.60413 10.0895 7.21895 11.9995 7.21895C13.9095 7.21895 15.4578 8.60413 15.4578 10.3128Z" stroke="white" stroke-width="2" stroke-linecap="round" stroke-linejoin="round"/>
<path d="M1 10.3128C2.46895 6.12874 6.83829 3.09375 12 3.09375C17.1617 3.09375 21.5311 6.12877 23 10.3129C21.531 14.4969 17.1617 17.5319 12 17.5319C6.83829 17.5319 2.46893 14.4969 1 10.3128Z" stroke="white" stroke-width="2" stroke-linecap="round" stroke-linejoin="round"/>
</svg>
