<svg width="20" height="21" viewBox="0 0 20 21" fill="none" xmlns="http://www.w3.org/2000/svg">
<path fill-rule="evenodd" clip-rule="evenodd" d="M15 10.313C15 13.3936 12.6173 15.626 9.99999 15.626C7.3827 15.626 4.99999 13.3936 4.99999 10.313C4.99999 7.23233 7.3827 5 9.99999 5C12.6173 5 15 7.23233 15 10.313ZM18.7416 15.3253C16.4719 17.32 13.3771 18.5319 10 18.5319C6.62285 18.5319 3.52802 17.32 1.25841 15.3253C2.96667 18.4872 6.24114 20.626 9.99999 20.626C13.7588 20.626 17.0333 18.4872 18.7416 15.3253ZM18.7413 5.30017C16.4717 3.30559 13.377 2.09375 9.99998 2.09375C6.623 2.09375 3.52831 3.30556 1.25874 5.30012C2.96709 2.13853 6.24138 0 9.99999 0C13.7586 0 17.0329 2.13855 18.7413 5.30017ZM10 16.5319C5.35812 16.5319 1.49307 13.887 0.067688 10.3128C1.49309 6.73863 5.35813 4.09375 9.99998 4.09375C14.6419 4.09375 18.5069 6.73866 19.9323 10.3129C18.5069 13.8871 14.6419 16.5319 10 16.5319Z" fill="#878A93"/>
</svg>
